PathFileType	4	(X/Y/Z)	10_2_100_p1_0-308_filt_butterworth.trc
DataRate	CameraRate	NumFrames	NumMarkers	Units	OrigDataRate	OrigDataStartFrame	OrigNumFrames
55.0	55.0	5	27	m	55.0	192	308
Frame#	Time	RHip			RKnee			RAnkle			RBigToe			RSmallToe			RHeel			LHip			LKnee			LAnkle			LBigToe			LSmallToe			LHeel			Neck			Head			Nose			RShoulder			RElbow			RWrist			RThumb			RIndex			RPinky			LShoulder			LElbow			LWrist			LThumb			LIndex			LPinky			
		X1	Y1	Z1	X2	Y2	Z2	X3	Y3	Z3	X4	Y4	Z4	X5	Y5	Z5	X6	Y6	Z6	X7	Y7	Z7	X8	Y8	Z8	X9	Y9	Z9	X10	Y10	Z10	X11	Y11	Z11	X12	Y12	Z12	X13	Y13	Z13	X14	Y14	Z14	X15	Y15	Z15	X16	Y16	Z16	X17	Y17	Z17	X18	Y18	Z18	X19	Y19	Z19	X20	Y20	Z20	X21	Y21	Z21	X22	Y22	Z22	X23	Y23	Z23	X24	Y24	Z24	X25	Y25	Z25	X26	Y26	Z26	X27	Y27	Z27	
192	3.4909090909090907	0.3167953380385915	0.7865490448117768	0.7676289779458791	0.3177560966783619	0.32635530302281673	0.7452235337371349	0.31278186776023453	-0.0933747446576844	0.7896092116972397	0.2791563592483295	-0.1327189402702093	0.5963078822973555	0.35070310796628523	-0.13667518888087654	0.6467495172339242	0.27243359527015704	-0.1787830047911781	0.8634860937594405	0.12447983614284966	0.7986502075205205	0.6992762642830885	0.08515931270753757	0.370142805948995	0.7476651986475791	0.07374985970033861	-0.059847728188054033	0.7513667164495821	0.12429076721971778	-0.140311146790964	0.5992385393548626	0.05704384035699078	-0.12260216704793983	0.6271642050070846	0.09217564476720191	-0.13867065663491165	0.8397692021662714	0.3058220887121436	1.2432391608209663	0.5732014110493862	0.4007050863157297	1.5191678981322603	0.48130708851350096	0.36255665924079494	1.326800162544412	0.47324938754221824	0.44555222586223653	1.1900497023969052	0.6773436175681182	0.43053415631716796	0.9062678872751899	0.7696896004112461	0.4223053036279449	0.6434289488322744	0.7595139863579071	0.3966660667679581	0.559677216011297	0.6879189921856455	0.41744198550757294	0.5283659353715474	0.7358283370650828	0.4254013577232374	0.5222551348551908	0.7629890510727939	0.14179362443903903	1.1909234396352453	0.5934685520907668	0.09205927773531467	0.9057122552127307	0.6136143091328391	0.10118419166216805	0.6561379259921988	0.5928974608888422	0.15297717291096272	0.5587861098162915	0.6184710952361929	0.13879443747011835	0.5329868288145352	0.6195638465785815	0.07419836186863693	0.5077200896300168	0.6644074687042432	
193	3.5090909090909093	0.3171740564800241	0.7872954702556312	0.7679764333851113	0.31776467919576695	0.326484214422063	0.7451422047561722	0.31339551042230085	-0.0917551105686528	0.7883850215752641	0.27919678305935836	-0.13287700445453643	0.5964559897764347	0.35075118015281526	-0.13685097307486277	0.646976041516117	0.27184667193937107	-0.17786601482190695	0.863300708392339	0.12504280646440338	0.7994593324051473	0.6977854638958747	0.08581488576973947	0.3710932929767923	0.7465802636923898	0.07410779500344218	-0.059225309803689355	0.75151568827739	0.12390910235173416	-0.14337716642771528	0.6029805778522926	0.057135661148065425	-0.12276026893808704	0.6274365373165359	0.09233069716456165	-0.13771391025702015	0.8389420151010856	0.30541306466785084	1.2441135488198478	0.5735804623067252	0.4008769509323068	1.5195777627138431	0.48054870463034305	0.36150442773337405	1.327752466574571	0.4726671605790014	0.4454655013944359	1.1899313471579371	0.6773758034019604	0.43247686262647456	0.9062147001568396	0.770178293619719	0.4226124723276282	0.6430696895053936	0.7606070127551783	0.39849992378544175	0.5580980553513638	0.692539920933275	0.4177335406365503	0.5284762425876415	0.7373674005312244	0.42707964549573724	0.5233938687653321	0.7606905262155831	0.14225210585187015	1.1909114492095925	0.5936729895775141	0.09187773945939534	0.9055540241816178	0.6141300683436518	0.10111891743753243	0.6561722753797771	0.5928578119875717	0.15287320582899455	0.5582287422720594	0.6183815839207955	0.1391527138987051	0.531574855814184	0.6218283388913223	0.07493391034779669	0.5079728211031947	0.6640863374560619	
194	3.527272727272728	0.3174119032913055	0.7872997482689011	0.7682361884745712	0.3177821022132117	0.32644531977901303	0.7449486781474045	0.3137752377264976	-0.09049115312566197	0.787265175830777	0.2792211613227965	-0.13304097149391372	0.5965903467763692	0.3508003002871789	-0.1370309452827146	0.6471681685436397	0.2714005357262719	-0.17734212743005492	0.8631542767429814	0.12555168802435043	0.7996798088763455	0.6963547801367801	0.08657866444053422	0.37186969313989626	0.7453696223860473	0.07461481236080449	-0.05869816227892709	0.7514423220356594	0.12373297368154482	-0.14593828094097355	0.6054277773103607	0.057085890457094716	-0.12258106941228875	0.6271442006412375	0.09250960729256938	-0.1368486690117281	0.837955747408956	0.3046826538028751	1.245197441648618	0.5751742319643971	0.40073951508675965	1.5205353780840234	0.4798063291085691	0.3603872445287376	1.3293232254780072	0.4717731932524096	0.44548772472095033	1.1898861539886423	0.6772892521700302	0.4345287951465315	0.9055902385756509	0.7723095404460613	0.42269283342636654	0.6429995152992758	0.7608660000248811	0.40020620755714553	0.5564334617534875	0.6973940088710268	0.41797471967321964	0.5285984482522185	0.7393663078066506	0.42876626684563945	0.5238589934035305	0.7596137004972348	0.1421623191722861	1.1908058439287899	0.5943467939062915	0.09170272859436794	0.9059953075080136	0.6143752309866897	0.1010376521460728	0.6564987430080725	0.5929196430251439	0.15289291832860724	0.5572755592530406	0.6183439281404867	0.13958357690159637	0.5296483886151883	0.624484972242155	0.07505666640424172	0.5087403672438765	0.663138420370011	
195	3.5454545454545454	0.31754525366448805	0.7868296978760843	0.7682326334606127	0.3177950829324818	0.3262346870383553	0.7445678338032253	0.31391534223154366	-0.08963034724627683	0.786265286755785	0.27925094265094436	-0.13317912692414863	0.5966398505087015	0.3508516491448493	-0.13721352547556878	0.6473300255700215	0.2710864583519072	-0.1772182544864587	0.8630424423278976	0.12601789641376654	0.7995388945890959	0.6950690258737855	0.08742708935904901	0.3725883570228994	0.7440946835924668	0.07515945837502774	-0.058285799248612075	0.7511911621162101	0.12357309950191486	-0.1479365915145403	0.6068712794486433	0.057024289335687095	-0.12238774374554597	0.6267989188172066	0.092718486537094	-0.13616757371159177	0.8367093203022904	0.3038114549379777	1.2464041647077124	0.5779733456698666	0.39989289723613675	1.5218373808210444	0.4802450762508602	0.35935775473325826	1.3316604753940668	0.4709303609108998	0.44556801354081355	1.1899239374167496	0.6770151163051198	0.4365545316554793	0.9047563628322016	0.775246974736384	0.4226221361782682	0.6430824467944671	0.7606708151984973	0.4016162907318668	0.5547464516296103	0.7018266483248403	0.4185023410974335	0.5287007960260913	0.7410665567208546	0.4301206926608674	0.5234348137221996	0.759942758888269	0.1414352257175353	1.1905795517929139	0.5955250208486419	0.09161496344142378	0.9066712826924199	0.6144017425580282	0.10107960454589786	0.6570372452619895	0.5932245366710519	0.15298120928908138	0.5559715811926086	0.6183342430147838	0.13995851165833242	0.5278293803220662	0.6269995994419183	0.07467642311023351	0.5099623373022459	0.6618635762810017	
196	3.5636363636363635	0.31757968428533667	0.7860391165080703	0.7678922974849779	0.31784157677090324	0.32583472773521427	0.7440406663408515	0.3138661283175321	-0.08911708007186485	0.785439536125389	0.27927133901054124	-0.13333168225359257	0.5966565874488187	0.3509025863870603	-0.13739047735191368	0.6474782534824584	0.2708571097940902	-0.17735460427148864	0.8629701774929865	0.126504457093442	0.7991991511659948	0.6939445488820037	0.08832809265245306	0.3733330679773627	0.7428508783689812	0.07561848039182181	-0.057977366551985265	0.7509132168281137	0.12322496759594248	-0.14945406017520788	0.6080827071545982	0.057003417694580207	-0.12233429236676288	0.6266604258522528	0.0930135346791474	-0.13566233533035335	0.835150460543807	0.30289166406264223	1.247787169732313	0.5818175892423246	0.3981150410277656	1.5233387836816719	0.48304322964852586	0.3583245721268971	1.3351637905656446	0.47042654167734715	0.4454984239996467	1.1899517041043983	0.6767691290380994	0.43821923297975285	0.9040890123106193	0.7778978110708245	0.42249288224824144	0.6431097414415228	0.7606086570789299	0.40263043042431546	0.5531064126462095	0.7052243184562087	0.4194136440834324	0.5287894492004033	0.7418237339904854	0.43096595698314843	0.5222058787784658	0.7614088482807704	0.14016484233871707	1.1902146296183462	0.5971196754011183	0.09162539014028012	0.9070955794132779	0.6142985072296923	0.10136746417245601	0.6576629379586642	0.5938804414854508	0.1530843140435122	0.5544206348554206	0.6183895144878534	0.14013634282380988	0.5267386034582293	0.628628214316993	0.07405990026072201	0.5114375506782658	0.6605903250860945	
